<svg width="1363" height="155" viewBox="0 0 1363 155" fill="none" xmlns="http://www.w3.org/2000/svg">
<path d="M0 15C0 6.71573 6.71573 0 15 0H37V155H15C6.71573 155 0 148.284 0 140V15Z" fill="#FFA400"/>
<rect width="1097" height="155" transform="translate(37)" fill="#F0F0F0"/>
<path d="M101.461 46.8555L96.8203 61H93.082L99.4219 43.9375H101.801L101.461 46.8555ZM105.316 61L100.664 46.8555L100.289 43.9375H102.691L109.066 61H105.316ZM105.105 54.6484V57.4023H96.0938V54.6484H105.105ZM114.387 43.9375V61H110.883V43.9375H114.387ZM130.301 54.918H125.953V52.1758H130.301C130.973 52.1758 131.52 52.0664 131.941 51.8477C132.363 51.6211 132.672 51.3086 132.867 50.9102C133.062 50.5117 133.16 50.0625 133.16 49.5625C133.16 49.0547 133.062 48.582 132.867 48.1445C132.672 47.707 132.363 47.3555 131.941 47.0898C131.52 46.8242 130.973 46.6914 130.301 46.6914H127.172V61H123.656V43.9375H130.301C131.637 43.9375 132.781 44.1797 133.734 44.6641C134.695 45.1406 135.43 45.8008 135.938 46.6445C136.445 47.4883 136.699 48.4531 136.699 49.5391C136.699 50.6406 136.445 51.5938 135.938 52.3984C135.43 53.2031 134.695 53.8242 133.734 54.2617C132.781 54.6992 131.637 54.918 130.301 54.918ZM138.211 54.7891V54.543C138.211 53.6133 138.344 52.7578 138.609 51.9766C138.875 51.1875 139.262 50.5039 139.77 49.9258C140.277 49.3477 140.902 48.8984 141.645 48.5781C142.387 48.25 143.238 48.0859 144.199 48.0859C145.16 48.0859 146.016 48.25 146.766 48.5781C147.516 48.8984 148.145 49.3477 148.652 49.9258C149.168 50.5039 149.559 51.1875 149.824 51.9766C150.09 52.7578 150.223 53.6133 150.223 54.543V54.7891C150.223 55.7109 150.09 56.5664 149.824 57.3555C149.559 58.1367 149.168 58.8203 148.652 59.4062C148.145 59.9844 147.52 60.4336 146.777 60.7539C146.035 61.0742 145.184 61.2344 144.223 61.2344C143.262 61.2344 142.406 61.0742 141.656 60.7539C140.914 60.4336 140.285 59.9844 139.77 59.4062C139.262 58.8203 138.875 58.1367 138.609 57.3555C138.344 56.5664 138.211 55.7109 138.211 54.7891ZM141.586 54.543V54.7891C141.586 55.3203 141.633 55.8164 141.727 56.2773C141.82 56.7383 141.969 57.1445 142.172 57.4961C142.383 57.8398 142.656 58.1094 142.992 58.3047C143.328 58.5 143.738 58.5977 144.223 58.5977C144.691 58.5977 145.094 58.5 145.43 58.3047C145.766 58.1094 146.035 57.8398 146.238 57.4961C146.441 57.1445 146.59 56.7383 146.684 56.2773C146.785 55.8164 146.836 55.3203 146.836 54.7891V54.543C146.836 54.0273 146.785 53.543 146.684 53.0898C146.59 52.6289 146.438 52.2227 146.227 51.8711C146.023 51.5117 145.754 51.2305 145.418 51.0273C145.082 50.8242 144.676 50.7227 144.199 50.7227C143.723 50.7227 143.316 50.8242 142.98 51.0273C142.652 51.2305 142.383 51.5117 142.172 51.8711C141.969 52.2227 141.82 52.6289 141.727 53.0898C141.633 53.543 141.586 54.0273 141.586 54.543ZM159.785 58.2344V43H163.184V61H160.125L159.785 58.2344ZM151.77 54.8125V54.5664C151.77 53.5977 151.879 52.7188 152.098 51.9297C152.316 51.1328 152.637 50.4492 153.059 49.8789C153.48 49.3086 154 48.8672 154.617 48.5547C155.234 48.2422 155.938 48.0859 156.727 48.0859C157.469 48.0859 158.117 48.2422 158.672 48.5547C159.234 48.8672 159.711 49.3125 160.102 49.8906C160.5 50.4609 160.82 51.1367 161.062 51.918C161.305 52.6914 161.48 53.5391 161.59 54.4609V55C161.48 55.8828 161.305 56.7031 161.062 57.4609C160.82 58.2188 160.5 58.8828 160.102 59.4531C159.711 60.0156 159.234 60.4531 158.672 60.7656C158.109 61.0781 157.453 61.2344 156.703 61.2344C155.914 61.2344 155.211 61.0742 154.594 60.7539C153.984 60.4336 153.469 59.9844 153.047 59.4062C152.633 58.8281 152.316 58.1484 152.098 57.3672C151.879 56.5859 151.77 55.7344 151.77 54.8125ZM155.145 54.5664V54.8125C155.145 55.3359 155.184 55.8242 155.262 56.2773C155.348 56.7305 155.484 57.1328 155.672 57.4844C155.867 57.8281 156.117 58.0977 156.422 58.293C156.734 58.4805 157.113 58.5742 157.559 58.5742C158.137 58.5742 158.613 58.4453 158.988 58.1875C159.363 57.9219 159.648 57.5586 159.844 57.0977C160.047 56.6367 160.164 56.1055 160.195 55.5039V53.9688C160.172 53.4766 160.102 53.0352 159.984 52.6445C159.875 52.2461 159.711 51.9062 159.492 51.625C159.281 51.3438 159.016 51.125 158.695 50.9688C158.383 50.8125 158.012 50.7344 157.582 50.7344C157.145 50.7344 156.77 50.8359 156.457 51.0391C156.145 51.2344 155.891 51.5039 155.695 51.8477C155.508 52.1914 155.367 52.5977 155.273 53.0664C155.188 53.5273 155.145 54.0273 155.145 54.5664ZM171.059 58.5977C171.473 58.5977 171.84 58.5195 172.16 58.3633C172.48 58.1992 172.73 57.9727 172.91 57.6836C173.098 57.3867 173.195 57.0391 173.203 56.6406H176.379C176.371 57.5312 176.133 58.3242 175.664 59.0195C175.195 59.707 174.566 60.25 173.777 60.6484C172.988 61.0391 172.105 61.2344 171.129 61.2344C170.145 61.2344 169.285 61.0703 168.551 60.7422C167.824 60.4141 167.219 59.9609 166.734 59.3828C166.25 58.7969 165.887 58.1172 165.645 57.3438C165.402 56.5625 165.281 55.7266 165.281 54.8359V54.4961C165.281 53.5977 165.402 52.7617 165.645 51.9883C165.887 51.207 166.25 50.5273 166.734 49.9492C167.219 49.3633 167.824 48.9062 168.551 48.5781C169.277 48.25 170.129 48.0859 171.105 48.0859C172.145 48.0859 173.055 48.2852 173.836 48.6836C174.625 49.082 175.242 49.6523 175.688 50.3945C176.141 51.1289 176.371 52 176.379 53.0078H173.203C173.195 52.5859 173.105 52.2031 172.934 51.8594C172.77 51.5156 172.527 51.2422 172.207 51.0391C171.895 50.8281 171.508 50.7227 171.047 50.7227C170.555 50.7227 170.152 50.8281 169.84 51.0391C169.527 51.2422 169.285 51.5234 169.113 51.8828C168.941 52.2344 168.82 52.6367 168.75 53.0898C168.688 53.5352 168.656 54.0039 168.656 54.4961V54.8359C168.656 55.3281 168.688 55.8008 168.75 56.2539C168.812 56.707 168.93 57.1094 169.102 57.4609C169.281 57.8125 169.527 58.0898 169.84 58.293C170.152 58.4961 170.559 58.5977 171.059 58.5977ZM185.18 58.1406V52.4922C185.18 52.0859 185.113 51.7383 184.98 51.4492C184.848 51.1523 184.641 50.9219 184.359 50.7578C184.086 50.5938 183.73 50.5117 183.293 50.5117C182.918 50.5117 182.594 50.5781 182.32 50.7109C182.047 50.8359 181.836 51.0195 181.688 51.2617C181.539 51.4961 181.465 51.7734 181.465 52.0938H178.09C178.09 51.5547 178.215 51.043 178.465 50.5586C178.715 50.0742 179.078 49.6484 179.555 49.2812C180.031 48.9062 180.598 48.6133 181.254 48.4023C181.918 48.1914 182.66 48.0859 183.48 48.0859C184.465 48.0859 185.34 48.25 186.105 48.5781C186.871 48.9062 187.473 49.3984 187.91 50.0547C188.355 50.7109 188.578 51.5312 188.578 52.5156V57.9414C188.578 58.6367 188.621 59.207 188.707 59.6523C188.793 60.0898 188.918 60.4727 189.082 60.8008V61H185.672C185.508 60.6562 185.383 60.2266 185.297 59.7109C185.219 59.1875 185.18 58.6641 185.18 58.1406ZM185.625 53.2773L185.648 55.1875H183.762C183.316 55.1875 182.93 55.2383 182.602 55.3398C182.273 55.4414 182.004 55.5859 181.793 55.7734C181.582 55.9531 181.426 56.1641 181.324 56.4062C181.23 56.6484 181.184 56.9141 181.184 57.2031C181.184 57.4922 181.25 57.7539 181.383 57.9883C181.516 58.2148 181.707 58.3945 181.957 58.5273C182.207 58.6523 182.5 58.7148 182.836 58.7148C183.344 58.7148 183.785 58.6133 184.16 58.4102C184.535 58.207 184.824 57.957 185.027 57.6602C185.238 57.3633 185.348 57.082 185.355 56.8164L186.246 58.2461C186.121 58.5664 185.949 58.8984 185.73 59.2422C185.52 59.5859 185.25 59.9102 184.922 60.2148C184.594 60.5117 184.199 60.7578 183.738 60.9531C183.277 61.1406 182.73 61.2344 182.098 61.2344C181.293 61.2344 180.562 61.0742 179.906 60.7539C179.258 60.4258 178.742 59.9766 178.359 59.4062C177.984 58.8281 177.797 58.1719 177.797 57.4375C177.797 56.7734 177.922 56.1836 178.172 55.668C178.422 55.1523 178.789 54.7188 179.273 54.3672C179.766 54.0078 180.379 53.7383 181.113 53.5586C181.848 53.3711 182.699 53.2773 183.668 53.2773H185.625ZM198.035 57.4961C198.035 57.2539 197.965 57.0352 197.824 56.8398C197.684 56.6445 197.422 56.4648 197.039 56.3008C196.664 56.1289 196.121 55.9727 195.41 55.832C194.77 55.6914 194.172 55.5156 193.617 55.3047C193.07 55.0859 192.594 54.8242 192.188 54.5195C191.789 54.2148 191.477 53.8555 191.25 53.4414C191.023 53.0195 190.91 52.5391 190.91 52C190.91 51.4688 191.023 50.9688 191.25 50.5C191.484 50.0312 191.816 49.6172 192.246 49.2578C192.684 48.8906 193.215 48.6055 193.84 48.4023C194.473 48.1914 195.184 48.0859 195.973 48.0859C197.074 48.0859 198.02 48.2617 198.809 48.6133C199.605 48.9648 200.215 49.4492 200.637 50.0664C201.066 50.6758 201.281 51.3711 201.281 52.1523H197.906C197.906 51.8242 197.836 51.5312 197.695 51.2734C197.562 51.0078 197.352 50.8008 197.062 50.6523C196.781 50.4961 196.414 50.418 195.961 50.418C195.586 50.418 195.262 50.4844 194.988 50.6172C194.715 50.7422 194.504 50.9141 194.355 51.1328C194.215 51.3438 194.145 51.5781 194.145 51.8359C194.145 52.0312 194.184 52.207 194.262 52.3633C194.348 52.5117 194.484 52.6484 194.672 52.7734C194.859 52.8984 195.102 53.0156 195.398 53.125C195.703 53.2266 196.078 53.3203 196.523 53.4062C197.438 53.5938 198.254 53.8398 198.973 54.1445C199.691 54.4414 200.262 54.8477 200.684 55.3633C201.105 55.8711 201.316 56.5391 201.316 57.3672C201.316 57.9297 201.191 58.4453 200.941 58.9141C200.691 59.3828 200.332 59.793 199.863 60.1445C199.395 60.4883 198.832 60.7578 198.176 60.9531C197.527 61.1406 196.797 61.2344 195.984 61.2344C194.805 61.2344 193.805 61.0234 192.984 60.6016C192.172 60.1797 191.555 59.6445 191.133 58.9961C190.719 58.3398 190.512 57.668 190.512 56.9805H193.711C193.727 57.4414 193.844 57.8125 194.062 58.0938C194.289 58.375 194.574 58.5781 194.918 58.7031C195.27 58.8281 195.648 58.8906 196.055 58.8906C196.492 58.8906 196.855 58.832 197.145 58.7148C197.434 58.5898 197.652 58.4258 197.801 58.2227C197.957 58.0117 198.035 57.7695 198.035 57.4961ZM209.719 48.3203V50.7109H202.336V48.3203H209.719ZM204.164 45.1914H207.539V57.1797C207.539 57.5469 207.586 57.8281 207.68 58.0234C207.781 58.2188 207.93 58.3555 208.125 58.4336C208.32 58.5039 208.566 58.5391 208.863 58.5391C209.074 58.5391 209.262 58.5312 209.426 58.5156C209.598 58.4922 209.742 58.4688 209.859 58.4453L209.871 60.9297C209.582 61.0234 209.27 61.0977 208.934 61.1523C208.598 61.207 208.227 61.2344 207.82 61.2344C207.078 61.2344 206.43 61.1133 205.875 60.8711C205.328 60.6211 204.906 60.2227 204.609 59.6758C204.312 59.1289 204.164 58.4102 204.164 57.5195V45.1914Z" fill="#888888"/>
<path d="M109.219 99.4219H100.734V93.0703H109.219C110.375 93.0703 111.312 92.875 112.031 92.4844C112.75 92.0938 113.273 91.5547 113.602 90.8672C113.945 90.1641 114.117 89.375 114.117 88.5C114.117 87.5625 113.945 86.6953 113.602 85.8984C113.273 85.1016 112.75 84.4609 112.031 83.9766C111.312 83.4766 110.375 83.2266 109.219 83.2266H103.828V111H95.6016V76.875H109.219C111.953 76.875 114.305 77.375 116.273 78.375C118.258 79.375 119.781 80.75 120.844 82.5C121.906 84.2344 122.438 86.2188 122.438 88.4531C122.438 90.6562 121.906 92.5781 120.844 94.2188C119.781 95.8594 118.258 97.1406 116.273 98.0625C114.305 98.9688 111.953 99.4219 109.219 99.4219ZM134.461 91.9219V111H126.562V85.6406H133.945L134.461 91.9219ZM141.961 85.4531L141.82 92.7891C141.508 92.7578 141.086 92.7188 140.555 92.6719C140.023 92.625 139.578 92.6016 139.219 92.6016C138.297 92.6016 137.5 92.7109 136.828 92.9297C136.172 93.1328 135.625 93.4453 135.188 93.8672C134.766 94.2734 134.453 94.7891 134.25 95.4141C134.062 96.0391 133.977 96.7656 133.992 97.5938L132.562 96.6562C132.562 94.9531 132.727 93.4062 133.055 92.0156C133.398 90.6094 133.883 89.3984 134.508 88.3828C135.133 87.3516 135.891 86.5625 136.781 86.0156C137.672 85.4531 138.672 85.1719 139.781 85.1719C140.172 85.1719 140.555 85.1953 140.93 85.2422C141.32 85.2891 141.664 85.3594 141.961 85.4531ZM142.852 98.5781V98.0859C142.852 96.2266 143.117 94.5156 143.648 92.9531C144.18 91.375 144.961 90.0078 145.992 88.8516C147.023 87.6953 148.297 86.7969 149.812 86.1562C151.328 85.5 153.078 85.1719 155.062 85.1719C157.062 85.1719 158.82 85.5 160.336 86.1562C161.867 86.7969 163.148 87.6953 164.18 88.8516C165.211 90.0078 165.992 91.375 166.523 92.9531C167.055 94.5156 167.32 96.2266 167.32 98.0859V98.5781C167.32 100.422 167.055 102.133 166.523 103.711C165.992 105.273 165.211 106.641 164.18 107.812C163.148 108.969 161.875 109.867 160.359 110.508C158.844 111.148 157.094 111.469 155.109 111.469C153.125 111.469 151.367 111.148 149.836 110.508C148.305 109.867 147.023 108.969 145.992 107.812C144.961 106.641 144.18 105.273 143.648 103.711C143.117 102.133 142.852 100.422 142.852 98.5781ZM150.75 98.0859V98.5781C150.75 99.5312 150.82 100.422 150.961 101.25C151.102 102.078 151.336 102.805 151.664 103.43C151.992 104.039 152.438 104.516 153 104.859C153.562 105.203 154.266 105.375 155.109 105.375C155.938 105.375 156.625 105.203 157.172 104.859C157.734 104.516 158.18 104.039 158.508 103.43C158.836 102.805 159.07 102.078 159.211 101.25C159.352 100.422 159.422 99.5312 159.422 98.5781V98.0859C159.422 97.1641 159.352 96.2969 159.211 95.4844C159.07 94.6562 158.836 93.9297 158.508 93.3047C158.18 92.6641 157.734 92.1641 157.172 91.8047C156.609 91.4453 155.906 91.2656 155.062 91.2656C154.234 91.2656 153.539 91.4453 152.977 91.8047C152.43 92.1641 151.992 92.6641 151.664 93.3047C151.336 93.9297 151.102 94.6562 150.961 95.4844C150.82 96.2969 150.75 97.1641 150.75 98.0859ZM171.422 85.6406H179.344V111.82C179.344 113.852 178.953 115.562 178.172 116.953C177.391 118.359 176.273 119.422 174.82 120.141C173.367 120.875 171.633 121.242 169.617 121.242C168.945 121.242 168.328 121.211 167.766 121.148C167.188 121.102 166.555 121 165.867 120.844V114.867C166.273 114.93 166.648 114.977 166.992 115.008C167.336 115.055 167.711 115.078 168.117 115.078C168.836 115.078 169.438 114.961 169.922 114.727C170.406 114.492 170.773 114.133 171.023 113.648C171.289 113.164 171.422 112.555 171.422 111.82V85.6406ZM170.836 79.1016C170.836 77.9766 171.242 77.0547 172.055 76.3359C172.867 75.6172 173.922 75.2578 175.219 75.2578C176.516 75.2578 177.57 75.6172 178.383 76.3359C179.195 77.0547 179.602 77.9766 179.602 79.1016C179.602 80.2266 179.195 81.1484 178.383 81.8672C177.57 82.5859 176.516 82.9453 175.219 82.9453C173.922 82.9453 172.867 82.5859 172.055 81.8672C171.242 81.1484 170.836 80.2266 170.836 79.1016ZM196.102 111.469C194.039 111.469 192.195 111.148 190.57 110.508C188.945 109.852 187.57 108.953 186.445 107.812C185.336 106.672 184.484 105.359 183.891 103.875C183.312 102.391 183.023 100.82 183.023 99.1641V98.2734C183.023 96.4141 183.281 94.6953 183.797 93.1172C184.312 91.5234 185.078 90.1328 186.094 88.9453C187.109 87.7578 188.383 86.8359 189.914 86.1797C191.445 85.5078 193.227 85.1719 195.258 85.1719C197.055 85.1719 198.664 85.4609 200.086 86.0391C201.508 86.6172 202.711 87.4453 203.695 88.5234C204.695 89.6016 205.453 90.9062 205.969 92.4375C206.5 93.9688 206.766 95.6875 206.766 97.5938V100.805H186.047V95.8594H199.055V95.25C199.07 94.4062 198.922 93.6875 198.609 93.0938C198.312 92.5 197.875 92.0469 197.297 91.7344C196.719 91.4219 196.016 91.2656 195.188 91.2656C194.328 91.2656 193.617 91.4531 193.055 91.8281C192.508 92.2031 192.078 92.7188 191.766 93.375C191.469 94.0156 191.258 94.7578 191.133 95.6016C191.008 96.4453 190.945 97.3359 190.945 98.2734V99.1641C190.945 100.102 191.07 100.953 191.32 101.719C191.586 102.484 191.961 103.141 192.445 103.688C192.945 104.219 193.539 104.633 194.227 104.93C194.93 105.227 195.727 105.375 196.617 105.375C197.695 105.375 198.758 105.172 199.805 104.766C200.852 104.359 201.75 103.688 202.5 102.75L206.086 107.016C205.57 107.75 204.836 108.461 203.883 109.148C202.945 109.836 201.82 110.398 200.508 110.836C199.195 111.258 197.727 111.469 196.102 111.469ZM220.688 105.375C221.422 105.375 222.047 105.242 222.562 104.977C223.094 104.695 223.492 104.305 223.758 103.805C224.039 103.289 224.172 102.672 224.156 101.953H231.586C231.602 103.859 231.133 105.531 230.18 106.969C229.242 108.391 227.961 109.5 226.336 110.297C224.727 111.078 222.906 111.469 220.875 111.469C218.891 111.469 217.156 111.148 215.672 110.508C214.188 109.852 212.945 108.945 211.945 107.789C210.961 106.617 210.219 105.25 209.719 103.688C209.234 102.125 208.992 100.43 208.992 98.6016V98.0625C208.992 96.2344 209.234 94.5391 209.719 92.9766C210.219 91.3984 210.961 90.0312 211.945 88.875C212.945 87.7031 214.18 86.7969 215.648 86.1562C217.133 85.5 218.859 85.1719 220.828 85.1719C222.938 85.1719 224.797 85.5703 226.406 86.3672C228.031 87.1641 229.305 88.3203 230.227 89.8359C231.148 91.3516 231.602 93.1875 231.586 95.3438H224.156C224.172 94.5781 224.055 93.8906 223.805 93.2812C223.555 92.6719 223.164 92.1875 222.633 91.8281C222.117 91.4531 221.453 91.2656 220.641 91.2656C219.828 91.2656 219.172 91.4453 218.672 91.8047C218.172 92.1641 217.789 92.6641 217.523 93.3047C217.273 93.9297 217.102 94.6484 217.008 95.4609C216.93 96.2734 216.891 97.1406 216.891 98.0625V98.6016C216.891 99.5391 216.93 100.422 217.008 101.25C217.102 102.062 217.281 102.781 217.547 103.406C217.812 104.016 218.195 104.5 218.695 104.859C219.195 105.203 219.859 105.375 220.688 105.375ZM248.32 85.6406V91.125H233.039V85.6406H248.32ZM236.25 79.3359H244.148V102.727C244.148 103.398 244.227 103.922 244.383 104.297C244.539 104.656 244.805 104.914 245.18 105.07C245.57 105.211 246.086 105.281 246.727 105.281C247.18 105.281 247.555 105.273 247.852 105.258C248.148 105.227 248.43 105.188 248.695 105.141V110.789C248.023 111.008 247.32 111.172 246.586 111.281C245.852 111.406 245.07 111.469 244.242 111.469C242.555 111.469 241.109 111.203 239.906 110.672C238.719 110.141 237.812 109.305 237.188 108.164C236.562 107.023 236.25 105.539 236.25 103.711V79.3359ZM277.406 99.4219H268.922V93.0703H277.406C278.562 93.0703 279.5 92.875 280.219 92.4844C280.938 92.0938 281.461 91.5547 281.789 90.8672C282.133 90.1641 282.305 89.375 282.305 88.5C282.305 87.5625 282.133 86.6953 281.789 85.8984C281.461 85.1016 280.938 84.4609 280.219 83.9766C279.5 83.4766 278.562 83.2266 277.406 83.2266H272.016V111H263.789V76.875H277.406C280.141 76.875 282.492 77.375 284.461 78.375C286.445 79.375 287.969 80.75 289.031 82.5C290.094 84.2344 290.625 86.2188 290.625 88.4531C290.625 90.6562 290.094 92.5781 289.031 94.2188C287.969 95.8594 286.445 97.1406 284.461 98.0625C282.492 98.9688 280.141 99.4219 277.406 99.4219ZM302.414 75V111H294.516V75H302.414ZM301.477 97.4531L299.625 97.5C299.625 95.7188 299.844 94.0781 300.281 92.5781C300.719 91.0781 301.344 89.7734 302.156 88.6641C302.969 87.5547 303.945 86.6953 305.086 86.0859C306.227 85.4766 307.492 85.1719 308.883 85.1719C310.133 85.1719 311.273 85.3516 312.305 85.7109C313.352 86.0703 314.25 86.6484 315 87.4453C315.766 88.2422 316.352 89.2812 316.758 90.5625C317.18 91.8438 317.391 93.4062 317.391 95.25V111H309.445V95.2031C309.445 94.1719 309.297 93.375 309 92.8125C308.719 92.2344 308.312 91.8359 307.781 91.6172C307.25 91.3828 306.602 91.2656 305.836 91.2656C304.914 91.2656 304.164 91.4219 303.586 91.7344C303.008 92.0469 302.562 92.4844 302.25 93.0469C301.953 93.5938 301.75 94.2422 301.641 94.9922C301.531 95.7422 301.477 96.5625 301.477 97.4531ZM330.117 85.6406V111H322.195V85.6406H330.117ZM321.727 79.1016C321.727 77.9766 322.133 77.0547 322.945 76.3359C323.758 75.6172 324.812 75.2578 326.109 75.2578C327.406 75.2578 328.461 75.6172 329.273 76.3359C330.086 77.0547 330.492 77.9766 330.492 79.1016C330.492 80.2266 330.086 81.1484 329.273 81.8672C328.461 82.5859 327.406 82.9453 326.109 82.9453C324.812 82.9453 323.758 82.5859 322.945 81.8672C322.133 81.1484 321.727 80.2266 321.727 79.1016ZM343.336 75V111H335.414V75H343.336ZM347.227 98.5781V98.0859C347.227 96.2266 347.492 94.5156 348.023 92.9531C348.555 91.375 349.336 90.0078 350.367 88.8516C351.398 87.6953 352.672 86.7969 354.188 86.1562C355.703 85.5 357.453 85.1719 359.438 85.1719C361.438 85.1719 363.195 85.5 364.711 86.1562C366.242 86.7969 367.523 87.6953 368.555 88.8516C369.586 90.0078 370.367 91.375 370.898 92.9531C371.43 94.5156 371.695 96.2266 371.695 98.0859V98.5781C371.695 100.422 371.43 102.133 370.898 103.711C370.367 105.273 369.586 106.641 368.555 107.812C367.523 108.969 366.25 109.867 364.734 110.508C363.219 111.148 361.469 111.469 359.484 111.469C357.5 111.469 355.742 111.148 354.211 110.508C352.68 109.867 351.398 108.969 350.367 107.812C349.336 106.641 348.555 105.273 348.023 103.711C347.492 102.133 347.227 100.422 347.227 98.5781ZM355.125 98.0859V98.5781C355.125 99.5312 355.195 100.422 355.336 101.25C355.477 102.078 355.711 102.805 356.039 103.43C356.367 104.039 356.812 104.516 357.375 104.859C357.938 105.203 358.641 105.375 359.484 105.375C360.312 105.375 361 105.203 361.547 104.859C362.109 104.516 362.555 104.039 362.883 103.43C363.211 102.805 363.445 102.078 363.586 101.25C363.727 100.422 363.797 99.5312 363.797 98.5781V98.0859C363.797 97.1641 363.727 96.2969 363.586 95.4844C363.445 94.6562 363.211 93.9297 362.883 93.3047C362.555 92.6641 362.109 92.1641 361.547 91.8047C360.984 91.4453 360.281 91.2656 359.438 91.2656C358.609 91.2656 357.914 91.4453 357.352 91.8047C356.805 92.1641 356.367 92.6641 356.039 93.3047C355.711 93.9297 355.477 94.6562 355.336 95.4844C355.195 96.2969 355.125 97.1641 355.125 98.0859ZM388.5 103.875C388.5 103.438 388.352 103.062 388.055 102.75C387.773 102.422 387.273 102.125 386.555 101.859C385.836 101.578 384.828 101.297 383.531 101.016C382.297 100.75 381.133 100.398 380.039 99.9609C378.961 99.5234 378.016 98.9922 377.203 98.3672C376.391 97.7422 375.75 97 375.281 96.1406C374.828 95.2812 374.602 94.2969 374.602 93.1875C374.602 92.1094 374.828 91.0938 375.281 90.1406C375.75 89.1719 376.43 88.3203 377.32 87.5859C378.227 86.8359 379.328 86.25 380.625 85.8281C381.922 85.3906 383.398 85.1719 385.055 85.1719C387.336 85.1719 389.305 85.5234 390.961 86.2266C392.617 86.9141 393.891 87.8828 394.781 89.1328C395.688 90.3672 396.141 91.7969 396.141 93.4219H388.242C388.242 92.7812 388.133 92.2344 387.914 91.7812C387.711 91.3281 387.375 90.9844 386.906 90.75C386.438 90.5 385.812 90.375 385.031 90.375C384.484 90.375 383.984 90.4766 383.531 90.6797C383.094 90.8828 382.742 91.1641 382.477 91.5234C382.211 91.8828 382.078 92.3047 382.078 92.7891C382.078 93.1328 382.156 93.4453 382.312 93.7266C382.484 93.9922 382.742 94.2422 383.086 94.4766C383.43 94.6953 383.867 94.8984 384.398 95.0859C384.93 95.2578 385.57 95.4141 386.32 95.5547C388.023 95.8672 389.617 96.3125 391.102 96.8906C392.586 97.4688 393.789 98.2891 394.711 99.3516C395.648 100.414 396.117 101.844 396.117 103.641C396.117 104.766 395.859 105.805 395.344 106.758C394.828 107.695 394.086 108.523 393.117 109.242C392.148 109.945 390.984 110.492 389.625 110.883C388.266 111.273 386.734 111.469 385.031 111.469C382.609 111.469 380.562 111.039 378.891 110.18C377.219 109.305 375.953 108.211 375.094 106.898C374.25 105.57 373.828 104.227 373.828 102.867H381.188C381.219 103.648 381.406 104.289 381.75 104.789C382.109 105.289 382.586 105.656 383.18 105.891C383.773 106.125 384.461 106.242 385.242 106.242C385.961 106.242 386.555 106.141 387.023 105.938C387.508 105.734 387.875 105.461 388.125 105.117C388.375 104.758 388.5 104.344 388.5 103.875ZM398.836 98.5781V98.0859C398.836 96.2266 399.102 94.5156 399.633 92.9531C400.164 91.375 400.945 90.0078 401.977 88.8516C403.008 87.6953 404.281 86.7969 405.797 86.1562C407.312 85.5 409.062 85.1719 411.047 85.1719C413.047 85.1719 414.805 85.5 416.32 86.1562C417.852 86.7969 419.133 87.6953 420.164 88.8516C421.195 90.0078 421.977 91.375 422.508 92.9531C423.039 94.5156 423.305 96.2266 423.305 98.0859V98.5781C423.305 100.422 423.039 102.133 422.508 103.711C421.977 105.273 421.195 106.641 420.164 107.812C419.133 108.969 417.859 109.867 416.344 110.508C414.828 111.148 413.078 111.469 411.094 111.469C409.109 111.469 407.352 111.148 405.82 110.508C404.289 109.867 403.008 108.969 401.977 107.812C400.945 106.641 400.164 105.273 399.633 103.711C399.102 102.133 398.836 100.422 398.836 98.5781ZM406.734 98.0859V98.5781C406.734 99.5312 406.805 100.422 406.945 101.25C407.086 102.078 407.32 102.805 407.648 103.43C407.977 104.039 408.422 104.516 408.984 104.859C409.547 105.203 410.25 105.375 411.094 105.375C411.922 105.375 412.609 105.203 413.156 104.859C413.719 104.516 414.164 104.039 414.492 103.43C414.82 102.805 415.055 102.078 415.195 101.25C415.336 100.422 415.406 99.5312 415.406 98.5781V98.0859C415.406 97.1641 415.336 96.2969 415.195 95.4844C415.055 94.6562 414.82 93.9297 414.492 93.3047C414.164 92.6641 413.719 92.1641 413.156 91.8047C412.594 91.4453 411.891 91.2656 411.047 91.2656C410.219 91.2656 409.523 91.4453 408.961 91.8047C408.414 92.1641 407.977 92.6641 407.648 93.3047C407.32 93.9297 407.086 94.6562 406.945 95.4844C406.805 96.2969 406.734 97.1641 406.734 98.0859ZM434.789 90.5156V120.75H426.891V85.6406H434.25L434.789 90.5156ZM450.352 98.0156V98.5078C450.352 100.352 450.141 102.062 449.719 103.641C449.297 105.219 448.672 106.594 447.844 107.766C447.016 108.938 445.984 109.852 444.75 110.508C443.531 111.148 442.117 111.469 440.508 111.469C438.992 111.469 437.688 111.133 436.594 110.461C435.5 109.789 434.586 108.859 433.852 107.672C433.117 106.484 432.523 105.125 432.07 103.594C431.617 102.062 431.258 100.445 430.992 98.7422V98.1094C431.258 96.2812 431.617 94.5859 432.07 93.0234C432.523 91.4453 433.117 90.0703 433.852 88.8984C434.586 87.7266 435.492 86.8125 436.57 86.1562C437.664 85.5 438.969 85.1719 440.484 85.1719C442.094 85.1719 443.508 85.4766 444.727 86.0859C445.961 86.6953 446.992 87.5703 447.82 88.7109C448.664 89.8359 449.297 91.1875 449.719 92.7656C450.141 94.3438 450.352 96.0938 450.352 98.0156ZM442.453 98.5078V98.0156C442.453 97.0312 442.383 96.1328 442.242 95.3203C442.102 94.4922 441.875 93.7734 441.562 93.1641C441.266 92.5547 440.867 92.0859 440.367 91.7578C439.867 91.4297 439.25 91.2656 438.516 91.2656C437.672 91.2656 436.961 91.3984 436.383 91.6641C435.82 91.9141 435.367 92.3047 435.023 92.8359C434.695 93.3516 434.461 94 434.32 94.7812C434.195 95.5469 434.141 96.4453 434.156 97.4766V99.3984C434.125 100.586 434.242 101.633 434.508 102.539C434.773 103.43 435.234 104.125 435.891 104.625C436.547 105.125 437.438 105.375 438.562 105.375C439.312 105.375 439.938 105.203 440.438 104.859C440.938 104.5 441.336 104.008 441.633 103.383C441.93 102.742 442.141 102.008 442.266 101.18C442.391 100.352 442.453 99.4609 442.453 98.5078ZM461.602 75V111H453.703V75H461.602ZM460.664 97.4531L458.812 97.5C458.812 95.7188 459.031 94.0781 459.469 92.5781C459.906 91.0781 460.531 89.7734 461.344 88.6641C462.156 87.5547 463.133 86.6953 464.273 86.0859C465.414 85.4766 466.68 85.1719 468.07 85.1719C469.32 85.1719 470.461 85.3516 471.492 85.7109C472.539 86.0703 473.438 86.6484 474.188 87.4453C474.953 88.2422 475.539 89.2812 475.945 90.5625C476.367 91.8438 476.578 93.4062 476.578 95.25V111H468.633V95.2031C468.633 94.1719 468.484 93.375 468.188 92.8125C467.906 92.2344 467.5 91.8359 466.969 91.6172C466.438 91.3828 465.789 91.2656 465.023 91.2656C464.102 91.2656 463.352 91.4219 462.773 91.7344C462.195 92.0469 461.75 92.4844 461.438 93.0469C461.141 93.5938 460.938 94.2422 460.828 94.9922C460.719 95.7422 460.664 96.5625 460.664 97.4531ZM488.742 108.023L495.305 85.6406H503.789L493.594 114.773C493.375 115.414 493.086 116.102 492.727 116.836C492.367 117.586 491.875 118.297 491.25 118.969C490.625 119.641 489.82 120.188 488.836 120.609C487.867 121.031 486.664 121.242 485.227 121.242C484.461 121.242 483.898 121.203 483.539 121.125C483.195 121.062 482.664 120.945 481.945 120.773V115.125C482.148 115.125 482.32 115.125 482.461 115.125C482.617 115.125 482.789 115.125 482.977 115.125C483.82 115.125 484.492 115.039 484.992 114.867C485.508 114.695 485.898 114.445 486.164 114.117C486.445 113.789 486.664 113.391 486.82 112.922L488.742 108.023ZM487.078 85.6406L492.07 103.383L492.938 111.75H487.641L478.617 85.6406H487.078Z" fill="black"/>
<path d="M1134 0H1348C1356.28 0 1363 6.71573 1363 15V140C1363 148.284 1356.28 155 1348 155H1134V0Z" fill="#FFA400"/>
<path d="M1234.26 99.7857H1262.74V105.357H1234.26V99.7857ZM1239.96 110.929H1257.04V116.5H1239.96V110.929ZM1248.5 38.5C1240.95 38.5 1233.71 41.4349 1228.37 46.6592C1223.03 51.8834 1220.03 58.969 1220.03 66.3571C1219.84 70.4057 1220.63 74.4412 1222.34 78.1315C1224.05 81.8219 1226.64 85.0616 1229.88 87.5843C1232.73 90.175 1234.26 91.6514 1234.26 94.2143H1239.96C1239.96 89.0886 1236.8 86.2193 1233.72 83.4614C1231.06 81.4676 1228.94 78.8658 1227.55 75.8838C1226.15 72.9019 1225.53 69.6308 1225.72 66.3571C1225.72 60.4466 1228.12 54.7781 1232.39 50.5988C1236.67 46.4194 1242.46 44.0714 1248.5 44.0714C1254.54 44.0714 1260.33 46.4194 1264.61 50.5988C1268.88 54.7781 1271.28 60.4466 1271.28 66.3571C1271.47 69.6333 1270.84 72.9059 1269.44 75.888C1268.04 78.8701 1265.92 81.4706 1263.25 83.4614C1260.2 86.2471 1257.04 89.0329 1257.04 94.2143H1262.74C1262.74 91.6514 1264.25 90.175 1267.12 87.5564C1270.36 85.0381 1272.94 81.8031 1274.66 78.1176C1276.37 74.4321 1277.16 70.4014 1276.97 66.3571C1276.97 62.6989 1276.24 59.0765 1274.81 55.6967C1273.37 52.3169 1271.28 49.2459 1268.63 46.6592C1265.99 44.0724 1262.85 42.0205 1259.4 40.6205C1255.94 39.2205 1252.24 38.5 1248.5 38.5Z" fill="white"/>
</svg>
