<svg width="1363" height="163" viewBox="0 0 1363 163" fill="none" xmlns="http://www.w3.org/2000/svg">
<path d="M0 15C0 6.71573 6.71573 0 15 0H37V163H15C6.71573 163 0 156.284 0 148V15Z" fill="#FFA400"/>
<rect width="1097" height="163" transform="translate(37)" fill="#F0F0F0"/>
<path d="M101.906 53.9219L94.3945 51.2383V48.0859L104.602 52.375V54.6367L101.906 53.9219ZM94.3945 56.1719L101.918 53.4297L104.602 52.7852V55.0352L94.3945 59.3242V56.1719ZM119.836 46.8555L115.195 61H111.457L117.797 43.9375H120.176L119.836 46.8555ZM123.691 61L119.039 46.8555L118.664 43.9375H121.066L127.441 61H123.691ZM123.48 54.6484V57.4023H114.469V54.6484H123.48ZM132.762 43.9375V61H129.258V43.9375H132.762ZM148.676 54.918H144.328V52.1758H148.676C149.348 52.1758 149.895 52.0664 150.316 51.8477C150.738 51.6211 151.047 51.3086 151.242 50.9102C151.438 50.5117 151.535 50.0625 151.535 49.5625C151.535 49.0547 151.438 48.582 151.242 48.1445C151.047 47.707 150.738 47.3555 150.316 47.0898C149.895 46.8242 149.348 46.6914 148.676 46.6914H145.547V61H142.031V43.9375H148.676C150.012 43.9375 151.156 44.1797 152.109 44.6641C153.07 45.1406 153.805 45.8008 154.312 46.6445C154.82 47.4883 155.074 48.4531 155.074 49.5391C155.074 50.6406 154.82 51.5938 154.312 52.3984C153.805 53.2031 153.07 53.8242 152.109 54.2617C151.156 54.6992 150.012 54.918 148.676 54.918ZM156.586 54.7891V54.543C156.586 53.6133 156.719 52.7578 156.984 51.9766C157.25 51.1875 157.637 50.5039 158.145 49.9258C158.652 49.3477 159.277 48.8984 160.02 48.5781C160.762 48.25 161.613 48.0859 162.574 48.0859C163.535 48.0859 164.391 48.25 165.141 48.5781C165.891 48.8984 166.52 49.3477 167.027 49.9258C167.543 50.5039 167.934 51.1875 168.199 51.9766C168.465 52.7578 168.598 53.6133 168.598 54.543V54.7891C168.598 55.7109 168.465 56.5664 168.199 57.3555C167.934 58.1367 167.543 58.8203 167.027 59.4062C166.52 59.9844 165.895 60.4336 165.152 60.7539C164.41 61.0742 163.559 61.2344 162.598 61.2344C161.637 61.2344 160.781 61.0742 160.031 60.7539C159.289 60.4336 158.66 59.9844 158.145 59.4062C157.637 58.8203 157.25 58.1367 156.984 57.3555C156.719 56.5664 156.586 55.7109 156.586 54.7891ZM159.961 54.543V54.7891C159.961 55.3203 160.008 55.8164 160.102 56.2773C160.195 56.7383 160.344 57.1445 160.547 57.4961C160.758 57.8398 161.031 58.1094 161.367 58.3047C161.703 58.5 162.113 58.5977 162.598 58.5977C163.066 58.5977 163.469 58.5 163.805 58.3047C164.141 58.1094 164.41 57.8398 164.613 57.4961C164.816 57.1445 164.965 56.7383 165.059 56.2773C165.16 55.8164 165.211 55.3203 165.211 54.7891V54.543C165.211 54.0273 165.16 53.543 165.059 53.0898C164.965 52.6289 164.812 52.2227 164.602 51.8711C164.398 51.5117 164.129 51.2305 163.793 51.0273C163.457 50.8242 163.051 50.7227 162.574 50.7227C162.098 50.7227 161.691 50.8242 161.355 51.0273C161.027 51.2305 160.758 51.5117 160.547 51.8711C160.344 52.2227 160.195 52.6289 160.102 53.0898C160.008 53.543 159.961 54.0273 159.961 54.543ZM178.16 58.2344V43H181.559V61H178.5L178.16 58.2344ZM170.145 54.8125V54.5664C170.145 53.5977 170.254 52.7188 170.473 51.9297C170.691 51.1328 171.012 50.4492 171.434 49.8789C171.855 49.3086 172.375 48.8672 172.992 48.5547C173.609 48.2422 174.312 48.0859 175.102 48.0859C175.844 48.0859 176.492 48.2422 177.047 48.5547C177.609 48.8672 178.086 49.3125 178.477 49.8906C178.875 50.4609 179.195 51.1367 179.438 51.918C179.68 52.6914 179.855 53.5391 179.965 54.4609V55C179.855 55.8828 179.68 56.7031 179.438 57.4609C179.195 58.2188 178.875 58.8828 178.477 59.4531C178.086 60.0156 177.609 60.4531 177.047 60.7656C176.484 61.0781 175.828 61.2344 175.078 61.2344C174.289 61.2344 173.586 61.0742 172.969 60.7539C172.359 60.4336 171.844 59.9844 171.422 59.4062C171.008 58.8281 170.691 58.1484 170.473 57.3672C170.254 56.5859 170.145 55.7344 170.145 54.8125ZM173.52 54.5664V54.8125C173.52 55.3359 173.559 55.8242 173.637 56.2773C173.723 56.7305 173.859 57.1328 174.047 57.4844C174.242 57.8281 174.492 58.0977 174.797 58.293C175.109 58.4805 175.488 58.5742 175.934 58.5742C176.512 58.5742 176.988 58.4453 177.363 58.1875C177.738 57.9219 178.023 57.5586 178.219 57.0977C178.422 56.6367 178.539 56.1055 178.57 55.5039V53.9688C178.547 53.4766 178.477 53.0352 178.359 52.6445C178.25 52.2461 178.086 51.9062 177.867 51.625C177.656 51.3438 177.391 51.125 177.07 50.9688C176.758 50.8125 176.387 50.7344 175.957 50.7344C175.52 50.7344 175.145 50.8359 174.832 51.0391C174.52 51.2344 174.266 51.5039 174.07 51.8477C173.883 52.1914 173.742 52.5977 173.648 53.0664C173.562 53.5273 173.52 54.0273 173.52 54.5664ZM189.434 58.5977C189.848 58.5977 190.215 58.5195 190.535 58.3633C190.855 58.1992 191.105 57.9727 191.285 57.6836C191.473 57.3867 191.57 57.0391 191.578 56.6406H194.754C194.746 57.5312 194.508 58.3242 194.039 59.0195C193.57 59.707 192.941 60.25 192.152 60.6484C191.363 61.0391 190.48 61.2344 189.504 61.2344C188.52 61.2344 187.66 61.0703 186.926 60.7422C186.199 60.4141 185.594 59.9609 185.109 59.3828C184.625 58.7969 184.262 58.1172 184.02 57.3438C183.777 56.5625 183.656 55.7266 183.656 54.8359V54.4961C183.656 53.5977 183.777 52.7617 184.02 51.9883C184.262 51.207 184.625 50.5273 185.109 49.9492C185.594 49.3633 186.199 48.9062 186.926 48.5781C187.652 48.25 188.504 48.0859 189.48 48.0859C190.52 48.0859 191.43 48.2852 192.211 48.6836C193 49.082 193.617 49.6523 194.062 50.3945C194.516 51.1289 194.746 52 194.754 53.0078H191.578C191.57 52.5859 191.48 52.2031 191.309 51.8594C191.145 51.5156 190.902 51.2422 190.582 51.0391C190.27 50.8281 189.883 50.7227 189.422 50.7227C188.93 50.7227 188.527 50.8281 188.215 51.0391C187.902 51.2422 187.66 51.5234 187.488 51.8828C187.316 52.2344 187.195 52.6367 187.125 53.0898C187.062 53.5352 187.031 54.0039 187.031 54.4961V54.8359C187.031 55.3281 187.062 55.8008 187.125 56.2539C187.188 56.707 187.305 57.1094 187.477 57.4609C187.656 57.8125 187.902 58.0898 188.215 58.293C188.527 58.4961 188.934 58.5977 189.434 58.5977ZM203.555 58.1406V52.4922C203.555 52.0859 203.488 51.7383 203.355 51.4492C203.223 51.1523 203.016 50.9219 202.734 50.7578C202.461 50.5938 202.105 50.5117 201.668 50.5117C201.293 50.5117 200.969 50.5781 200.695 50.7109C200.422 50.8359 200.211 51.0195 200.062 51.2617C199.914 51.4961 199.84 51.7734 199.84 52.0938H196.465C196.465 51.5547 196.59 51.043 196.84 50.5586C197.09 50.0742 197.453 49.6484 197.93 49.2812C198.406 48.9062 198.973 48.6133 199.629 48.4023C200.293 48.1914 201.035 48.0859 201.855 48.0859C202.84 48.0859 203.715 48.25 204.48 48.5781C205.246 48.9062 205.848 49.3984 206.285 50.0547C206.73 50.7109 206.953 51.5312 206.953 52.5156V57.9414C206.953 58.6367 206.996 59.207 207.082 59.6523C207.168 60.0898 207.293 60.4727 207.457 60.8008V61H204.047C203.883 60.6562 203.758 60.2266 203.672 59.7109C203.594 59.1875 203.555 58.6641 203.555 58.1406ZM204 53.2773L204.023 55.1875H202.137C201.691 55.1875 201.305 55.2383 200.977 55.3398C200.648 55.4414 200.379 55.5859 200.168 55.7734C199.957 55.9531 199.801 56.1641 199.699 56.4062C199.605 56.6484 199.559 56.9141 199.559 57.2031C199.559 57.4922 199.625 57.7539 199.758 57.9883C199.891 58.2148 200.082 58.3945 200.332 58.5273C200.582 58.6523 200.875 58.7148 201.211 58.7148C201.719 58.7148 202.16 58.6133 202.535 58.4102C202.91 58.207 203.199 57.957 203.402 57.6602C203.613 57.3633 203.723 57.082 203.73 56.8164L204.621 58.2461C204.496 58.5664 204.324 58.8984 204.105 59.2422C203.895 59.5859 203.625 59.9102 203.297 60.2148C202.969 60.5117 202.574 60.7578 202.113 60.9531C201.652 61.1406 201.105 61.2344 200.473 61.2344C199.668 61.2344 198.938 61.0742 198.281 60.7539C197.633 60.4258 197.117 59.9766 196.734 59.4062C196.359 58.8281 196.172 58.1719 196.172 57.4375C196.172 56.7734 196.297 56.1836 196.547 55.668C196.797 55.1523 197.164 54.7188 197.648 54.3672C198.141 54.0078 198.754 53.7383 199.488 53.5586C200.223 53.3711 201.074 53.2773 202.043 53.2773H204ZM216.41 57.4961C216.41 57.2539 216.34 57.0352 216.199 56.8398C216.059 56.6445 215.797 56.4648 215.414 56.3008C215.039 56.1289 214.496 55.9727 213.785 55.832C213.145 55.6914 212.547 55.5156 211.992 55.3047C211.445 55.0859 210.969 54.8242 210.562 54.5195C210.164 54.2148 209.852 53.8555 209.625 53.4414C209.398 53.0195 209.285 52.5391 209.285 52C209.285 51.4688 209.398 50.9688 209.625 50.5C209.859 50.0312 210.191 49.6172 210.621 49.2578C211.059 48.8906 211.59 48.6055 212.215 48.4023C212.848 48.1914 213.559 48.0859 214.348 48.0859C215.449 48.0859 216.395 48.2617 217.184 48.6133C217.98 48.9648 218.59 49.4492 219.012 50.0664C219.441 50.6758 219.656 51.3711 219.656 52.1523H216.281C216.281 51.8242 216.211 51.5312 216.07 51.2734C215.938 51.0078 215.727 50.8008 215.438 50.6523C215.156 50.4961 214.789 50.418 214.336 50.418C213.961 50.418 213.637 50.4844 213.363 50.6172C213.09 50.7422 212.879 50.9141 212.73 51.1328C212.59 51.3438 212.52 51.5781 212.52 51.8359C212.52 52.0312 212.559 52.207 212.637 52.3633C212.723 52.5117 212.859 52.6484 213.047 52.7734C213.234 52.8984 213.477 53.0156 213.773 53.125C214.078 53.2266 214.453 53.3203 214.898 53.4062C215.812 53.5938 216.629 53.8398 217.348 54.1445C218.066 54.4414 218.637 54.8477 219.059 55.3633C219.48 55.8711 219.691 56.5391 219.691 57.3672C219.691 57.9297 219.566 58.4453 219.316 58.9141C219.066 59.3828 218.707 59.793 218.238 60.1445C217.77 60.4883 217.207 60.7578 216.551 60.9531C215.902 61.1406 215.172 61.2344 214.359 61.2344C213.18 61.2344 212.18 61.0234 211.359 60.6016C210.547 60.1797 209.93 59.6445 209.508 58.9961C209.094 58.3398 208.887 57.668 208.887 56.9805H212.086C212.102 57.4414 212.219 57.8125 212.438 58.0938C212.664 58.375 212.949 58.5781 213.293 58.7031C213.645 58.8281 214.023 58.8906 214.43 58.8906C214.867 58.8906 215.23 58.832 215.52 58.7148C215.809 58.5898 216.027 58.4258 216.176 58.2227C216.332 58.0117 216.41 57.7695 216.41 57.4961ZM228.094 48.3203V50.7109H220.711V48.3203H228.094ZM222.539 45.1914H225.914V57.1797C225.914 57.5469 225.961 57.8281 226.055 58.0234C226.156 58.2188 226.305 58.3555 226.5 58.4336C226.695 58.5039 226.941 58.5391 227.238 58.5391C227.449 58.5391 227.637 58.5312 227.801 58.5156C227.973 58.4922 228.117 58.4688 228.234 58.4453L228.246 60.9297C227.957 61.0234 227.645 61.0977 227.309 61.1523C226.973 61.207 226.602 61.2344 226.195 61.2344C225.453 61.2344 224.805 61.1133 224.25 60.8711C223.703 60.6211 223.281 60.2227 222.984 59.6758C222.688 59.1289 222.539 58.4102 222.539 57.5195V45.1914Z" fill="#888888"/>
<path d="M112.125 84.875V119H103.898V84.875H112.125ZM122.391 84.875V91.2266H93.8672V84.875H122.391ZM135.68 119.469C133.617 119.469 131.773 119.148 130.148 118.508C128.523 117.852 127.148 116.953 126.023 115.812C124.914 114.672 124.062 113.359 123.469 111.875C122.891 110.391 122.602 108.82 122.602 107.164V106.273C122.602 104.414 122.859 102.695 123.375 101.117C123.891 99.5234 124.656 98.1328 125.672 96.9453C126.688 95.7578 127.961 94.8359 129.492 94.1797C131.023 93.5078 132.805 93.1719 134.836 93.1719C136.633 93.1719 138.242 93.4609 139.664 94.0391C141.086 94.6172 142.289 95.4453 143.273 96.5234C144.273 97.6016 145.031 98.9062 145.547 100.438C146.078 101.969 146.344 103.688 146.344 105.594V108.805H125.625V103.859H138.633V103.25C138.648 102.406 138.5 101.688 138.188 101.094C137.891 100.5 137.453 100.047 136.875 99.7344C136.297 99.4219 135.594 99.2656 134.766 99.2656C133.906 99.2656 133.195 99.4531 132.633 99.8281C132.086 100.203 131.656 100.719 131.344 101.375C131.047 102.016 130.836 102.758 130.711 103.602C130.586 104.445 130.523 105.336 130.523 106.273V107.164C130.523 108.102 130.648 108.953 130.898 109.719C131.164 110.484 131.539 111.141 132.023 111.688C132.523 112.219 133.117 112.633 133.805 112.93C134.508 113.227 135.305 113.375 136.195 113.375C137.273 113.375 138.336 113.172 139.383 112.766C140.43 112.359 141.328 111.688 142.078 110.75L145.664 115.016C145.148 115.75 144.414 116.461 143.461 117.148C142.523 117.836 141.398 118.398 140.086 118.836C138.773 119.258 137.305 119.469 135.68 119.469ZM160.266 113.375C161 113.375 161.625 113.242 162.141 112.977C162.672 112.695 163.07 112.305 163.336 111.805C163.617 111.289 163.75 110.672 163.734 109.953H171.164C171.18 111.859 170.711 113.531 169.758 114.969C168.82 116.391 167.539 117.5 165.914 118.297C164.305 119.078 162.484 119.469 160.453 119.469C158.469 119.469 156.734 119.148 155.25 118.508C153.766 117.852 152.523 116.945 151.523 115.789C150.539 114.617 149.797 113.25 149.297 111.688C148.812 110.125 148.57 108.43 148.57 106.602V106.062C148.57 104.234 148.812 102.539 149.297 100.977C149.797 99.3984 150.539 98.0312 151.523 96.875C152.523 95.7031 153.758 94.7969 155.227 94.1562C156.711 93.5 158.438 93.1719 160.406 93.1719C162.516 93.1719 164.375 93.5703 165.984 94.3672C167.609 95.1641 168.883 96.3203 169.805 97.8359C170.727 99.3516 171.18 101.188 171.164 103.344H163.734C163.75 102.578 163.633 101.891 163.383 101.281C163.133 100.672 162.742 100.188 162.211 99.8281C161.695 99.4531 161.031 99.2656 160.219 99.2656C159.406 99.2656 158.75 99.4453 158.25 99.8047C157.75 100.164 157.367 100.664 157.102 101.305C156.852 101.93 156.68 102.648 156.586 103.461C156.508 104.273 156.469 105.141 156.469 106.062V106.602C156.469 107.539 156.508 108.422 156.586 109.25C156.68 110.062 156.859 110.781 157.125 111.406C157.391 112.016 157.773 112.5 158.273 112.859C158.773 113.203 159.438 113.375 160.266 113.375ZM182.273 83V119H174.375V83H182.273ZM181.336 105.453L179.484 105.5C179.484 103.719 179.703 102.078 180.141 100.578C180.578 99.0781 181.203 97.7734 182.016 96.6641C182.828 95.5547 183.805 94.6953 184.945 94.0859C186.086 93.4766 187.352 93.1719 188.742 93.1719C189.992 93.1719 191.133 93.3516 192.164 93.7109C193.211 94.0703 194.109 94.6484 194.859 95.4453C195.625 96.2422 196.211 97.2812 196.617 98.5625C197.039 99.8438 197.25 101.406 197.25 103.25V119H189.305V103.203C189.305 102.172 189.156 101.375 188.859 100.812C188.578 100.234 188.172 99.8359 187.641 99.6172C187.109 99.3828 186.461 99.2656 185.695 99.2656C184.773 99.2656 184.023 99.4219 183.445 99.7344C182.867 100.047 182.422 100.484 182.109 101.047C181.812 101.594 181.609 102.242 181.5 102.992C181.391 103.742 181.336 104.562 181.336 105.453ZM231.539 109.93C231.539 109.398 231.461 108.922 231.305 108.5C231.148 108.062 230.859 107.656 230.438 107.281C230.016 106.906 229.406 106.531 228.609 106.156C227.828 105.766 226.797 105.359 225.516 104.938C224.016 104.438 222.57 103.875 221.18 103.25C219.789 102.609 218.547 101.867 217.453 101.023C216.359 100.164 215.492 99.1641 214.852 98.0234C214.211 96.8672 213.891 95.5234 213.891 93.9922C213.891 92.5234 214.219 91.2031 214.875 90.0312C215.531 88.8438 216.445 87.8359 217.617 87.0078C218.805 86.1641 220.195 85.5234 221.789 85.0859C223.383 84.6328 225.125 84.4062 227.016 84.4062C229.516 84.4062 231.719 84.8438 233.625 85.7188C235.547 86.5781 237.047 87.8047 238.125 89.3984C239.219 90.9766 239.766 92.8438 239.766 95H231.586C231.586 94.1406 231.406 93.3828 231.047 92.7266C230.703 92.0703 230.18 91.5547 229.477 91.1797C228.773 90.8047 227.891 90.6172 226.828 90.6172C225.797 90.6172 224.93 90.7734 224.227 91.0859C223.523 91.3984 222.992 91.8203 222.633 92.3516C222.273 92.8672 222.094 93.4375 222.094 94.0625C222.094 94.5781 222.234 95.0469 222.516 95.4688C222.812 95.875 223.227 96.2578 223.758 96.6172C224.305 96.9766 224.961 97.3203 225.727 97.6484C226.508 97.9766 227.383 98.2969 228.352 98.6094C230.164 99.1875 231.773 99.8359 233.18 100.555C234.602 101.258 235.797 102.062 236.766 102.969C237.75 103.859 238.492 104.875 238.992 106.016C239.508 107.156 239.766 108.445 239.766 109.883C239.766 111.414 239.469 112.773 238.875 113.961C238.281 115.148 237.43 116.156 236.32 116.984C235.211 117.797 233.883 118.414 232.336 118.836C230.789 119.258 229.062 119.469 227.156 119.469C225.406 119.469 223.68 119.25 221.977 118.812C220.289 118.359 218.758 117.672 217.383 116.75C216.008 115.812 214.906 114.617 214.078 113.164C213.266 111.695 212.859 109.953 212.859 107.938H221.109C221.109 108.938 221.242 109.781 221.508 110.469C221.773 111.156 222.164 111.711 222.68 112.133C223.195 112.539 223.828 112.836 224.578 113.023C225.328 113.195 226.188 113.281 227.156 113.281C228.203 113.281 229.047 113.133 229.688 112.836C230.328 112.523 230.797 112.117 231.094 111.617C231.391 111.102 231.539 110.539 231.539 109.93ZM256.992 93.6406V99.125H241.711V93.6406H256.992ZM244.922 87.3359H252.82V110.727C252.82 111.398 252.898 111.922 253.055 112.297C253.211 112.656 253.477 112.914 253.852 113.07C254.242 113.211 254.758 113.281 255.398 113.281C255.852 113.281 256.227 113.273 256.523 113.258C256.82 113.227 257.102 113.188 257.367 113.141V118.789C256.695 119.008 255.992 119.172 255.258 119.281C254.523 119.406 253.742 119.469 252.914 119.469C251.227 119.469 249.781 119.203 248.578 118.672C247.391 118.141 246.484 117.305 245.859 116.164C245.234 115.023 244.922 113.539 244.922 111.711V87.3359ZM273.305 112.625V102.172C273.305 101.453 273.203 100.836 273 100.32C272.797 99.8047 272.477 99.4062 272.039 99.125C271.602 98.8281 271.016 98.6797 270.281 98.6797C269.688 98.6797 269.18 98.7812 268.758 98.9844C268.336 99.1875 268.016 99.4922 267.797 99.8984C267.578 100.305 267.469 100.82 267.469 101.445H259.57C259.57 100.273 259.828 99.1875 260.344 98.1875C260.875 97.1719 261.625 96.2891 262.594 95.5391C263.578 94.7891 264.75 94.2109 266.109 93.8047C267.484 93.3828 269.016 93.1719 270.703 93.1719C272.719 93.1719 274.516 93.5078 276.094 94.1797C277.688 94.8516 278.945 95.8594 279.867 97.2031C280.789 98.5312 281.25 100.203 281.25 102.219V112.602C281.25 114.258 281.344 115.516 281.531 116.375C281.719 117.219 281.984 117.961 282.328 118.602V119H274.406C274.031 118.219 273.75 117.266 273.562 116.141C273.391 115 273.305 113.828 273.305 112.625ZM274.266 103.508L274.312 107.727H270.82C270.086 107.727 269.461 107.828 268.945 108.031C268.445 108.234 268.039 108.516 267.727 108.875C267.43 109.219 267.211 109.609 267.07 110.047C266.945 110.484 266.883 110.945 266.883 111.43C266.883 111.898 266.992 112.32 267.211 112.695C267.445 113.055 267.758 113.336 268.148 113.539C268.539 113.742 268.977 113.844 269.461 113.844C270.336 113.844 271.078 113.68 271.688 113.352C272.312 113.008 272.789 112.594 273.117 112.109C273.445 111.625 273.609 111.172 273.609 110.75L275.344 113.984C275.031 114.609 274.672 115.242 274.266 115.883C273.875 116.523 273.383 117.117 272.789 117.664C272.211 118.195 271.5 118.633 270.656 118.977C269.812 119.305 268.789 119.469 267.586 119.469C266.023 119.469 264.586 119.148 263.273 118.508C261.977 117.867 260.938 116.977 260.156 115.836C259.375 114.68 258.984 113.352 258.984 111.852C258.984 110.539 259.219 109.367 259.688 108.336C260.172 107.305 260.898 106.43 261.867 105.711C262.836 104.992 264.07 104.445 265.57 104.07C267.07 103.695 268.836 103.508 270.867 103.508H274.266ZM296.344 113.375C297.078 113.375 297.703 113.242 298.219 112.977C298.75 112.695 299.148 112.305 299.414 111.805C299.695 111.289 299.828 110.672 299.812 109.953H307.242C307.258 111.859 306.789 113.531 305.836 114.969C304.898 116.391 303.617 117.5 301.992 118.297C300.383 119.078 298.562 119.469 296.531 119.469C294.547 119.469 292.812 119.148 291.328 118.508C289.844 117.852 288.602 116.945 287.602 115.789C286.617 114.617 285.875 113.25 285.375 111.688C284.891 110.125 284.648 108.43 284.648 106.602V106.062C284.648 104.234 284.891 102.539 285.375 100.977C285.875 99.3984 286.617 98.0312 287.602 96.875C288.602 95.7031 289.836 94.7969 291.305 94.1562C292.789 93.5 294.516 93.1719 296.484 93.1719C298.594 93.1719 300.453 93.5703 302.062 94.3672C303.688 95.1641 304.961 96.3203 305.883 97.8359C306.805 99.3516 307.258 101.188 307.242 103.344H299.812C299.828 102.578 299.711 101.891 299.461 101.281C299.211 100.672 298.82 100.188 298.289 99.8281C297.773 99.4531 297.109 99.2656 296.297 99.2656C295.484 99.2656 294.828 99.4453 294.328 99.8047C293.828 100.164 293.445 100.664 293.18 101.305C292.93 101.93 292.758 102.648 292.664 103.461C292.586 104.273 292.547 105.141 292.547 106.062V106.602C292.547 107.539 292.586 108.422 292.664 109.25C292.758 110.062 292.938 110.781 293.203 111.406C293.469 112.016 293.852 112.5 294.352 112.859C294.852 113.203 295.516 113.375 296.344 113.375ZM318.586 82.9766V119H310.688V82.9766H318.586ZM334.805 93.6406L323.789 106.555L318.023 112.32L314.578 107.305L319.383 101.047L325.336 93.6406H334.805ZM326.344 119L319.57 107.445L325.406 103.297L335.391 119H326.344Z" fill="black"/>
<path d="M1134 0H1348C1356.28 0 1363 6.71573 1363 15V148C1363 156.284 1356.28 163 1348 163H1134V0Z" fill="#FFA400"/>
<path fill-rule="evenodd" clip-rule="evenodd" d="M1218.75 53C1218.62 53 1218.49 53.0527 1218.4 53.1464C1218.3 53.2402 1218.25 53.3674 1218.25 53.5V109.5C1218.25 109.633 1218.3 109.76 1218.4 109.854C1218.49 109.947 1218.62 110 1218.75 110H1278.25C1278.38 110 1278.51 109.947 1278.6 109.854C1278.7 109.76 1278.75 109.633 1278.75 109.5V64C1278.75 63.8674 1278.7 63.7402 1278.6 63.6464C1278.51 63.5527 1278.38 63.5 1278.25 63.5H1248.5C1247.61 63.5 1246.77 63.1045 1246.2 62.4206L1238.34 53H1218.75ZM1214.15 48.9038C1215.37 47.6848 1217.03 47 1218.75 47H1239.75C1240.64 47 1241.48 47.3955 1242.05 48.0794L1249.91 57.5H1278.25C1279.97 57.5 1281.63 58.1848 1282.85 59.4038C1284.07 60.6228 1284.75 62.2761 1284.75 64V109.5C1284.75 111.224 1284.07 112.877 1282.85 114.096C1281.63 115.315 1279.97 116 1278.25 116H1218.75C1217.03 116 1215.37 115.315 1214.15 114.096C1212.93 112.877 1212.25 111.224 1212.25 109.5V53.5C1212.25 51.7761 1212.93 50.1228 1214.15 48.9038Z" fill="white"/>
<path fill-rule="evenodd" clip-rule="evenodd" d="M1243.97 75.5251C1245.34 76.892 1245.34 79.108 1243.97 80.4749L1237.7 86.75L1243.97 93.0251C1245.34 94.392 1245.34 96.608 1243.97 97.9749C1242.61 99.3417 1240.39 99.3417 1239.03 97.9749L1230.28 89.2249C1228.91 87.858 1228.91 85.642 1230.28 84.2751L1239.03 75.5251C1240.39 74.1583 1242.61 74.1583 1243.97 75.5251Z" fill="white"/>
<path fill-rule="evenodd" clip-rule="evenodd" d="M1252.28 97.9749C1250.91 96.608 1250.91 94.392 1252.28 93.0251L1258.55 86.75L1252.28 80.4749C1250.91 79.108 1250.91 76.892 1252.28 75.5251C1253.64 74.1583 1255.86 74.1583 1257.22 75.5251L1265.97 84.2751C1267.34 85.642 1267.34 87.858 1265.97 89.2249L1257.22 97.9749C1255.86 99.3417 1253.64 99.3417 1252.28 97.9749Z" fill="white"/>
</svg>
